<?xml version="1.0" standalone="no"?>
<!DOCTYPE svg PUBLIC "-//W3C//DTD SVG 20010904//EN"
 "http://www.w3.org/TR/2001/REC-SVG-20010904/DTD/svg10.dtd">
<svg version="1.0" xmlns="http://www.w3.org/2000/svg"
 width="260.000000pt" height="260.000000pt" viewBox="0 0 260.000000 260.000000"
 preserveAspectRatio="xMidYMid meet">
<metadata>
Created by potrace 1.14, written by Peter Selinger 2001-2017
</metadata>
<g transform="translate(0.000000,260.000000) scale(0.100000,-0.100000)"
fill="#000000" stroke="none">
<path d="M1130 2560 c-19 -4 -48 -11 -64 -15 -16 -3 -40 -12 -55 -19 -14 -7
-59 -23 -99 -36 -82 -26 -143 -72 -171 -129 -26 -50 -85 -221 -104 -301 -29
-121 -36 -252 -17 -349 12 -66 12 -74 0 -66 -17 11 -57 -6 -70 -30 -7 -12 -12
-38 -11 -56 0 -19 1 -44 1 -57 0 -13 5 -20 10 -17 6 4 7 -1 3 -10 -3 -10 0
-21 8 -26 9 -6 10 -9 2 -9 -11 0 34 -97 60 -129 20 -24 89 -71 97 -66 11 7 43
-33 47 -58 11 -77 61 -179 123 -249 24 -27 44 -63 51 -91 6 -26 14 -47 18 -47
3 0 7 -20 8 -45 1 -25 -1 -44 -5 -44 -4 1 -9 0 -12 -1 -3 -1 -12 -3 -20 -5
-67 -14 -246 -91 -243 -104 2 -6 -3 -8 -10 -5 -8 3 -43 -8 -78 -25 -35 -16
-68 -29 -73 -29 -5 0 -12 -4 -15 -9 -8 -11 -151 -84 -151 -77 0 3 -7 -1 -15
-8 -33 -30 -45 -38 -54 -38 -6 0 -19 -7 -28 -15 -10 -8 -21 -15 -26 -15 -4 0
-18 -10 -30 -22 -12 -13 -34 -30 -49 -37 l-28 -14 0 -154 0 -153 1170 0 1170
0 0 424 0 423 -62 19 c-65 19 -91 24 -145 27 -17 1 -35 5 -38 9 -4 4 -17 3
-29 -2 -12 -4 -29 -5 -37 0 -20 11 -340 9 -361 -2 -10 -5 -18 -7 -18 -6 -14
106 -9 157 23 253 21 62 33 117 33 147 -1 31 3 47 10 44 23 -9 63 40 74 90 14
57 13 227 0 242 -4 3 -7 20 -9 37 0 8 -10 15 -20 15 -28 0 -31 9 -20 65 15 79
16 99 5 114 -9 11 -8 13 2 7 11 -6 12 -1 8 25 -3 19 -8 52 -12 74 -3 22 -9 45
-13 50 -4 6 -13 26 -21 45 -53 144 -155 300 -196 300 -8 0 -14 4 -14 8 0 12
-227 128 -277 141 -57 16 -180 22 -223 11z m-165 -1869 c3 -5 2 -12 -3 -15 -5
-3 -9 1 -9 9 0 17 3 19 12 6z"/>
</g>
</svg>
